<svg xmlns="http://www.w3.org/2000/svg" width="104" height="125" fill="none">
    <g filter="url(#filter0_d)">
        <path
            d="M7 21c0-8.837 7.163-16 16-16h58c8.837 0 16 7.163 16 16v66.892a16 16 0 01-8.468 14.116l-14.396 7.681a48 48 0 01-45.928-.402l-12.986-7.223A16 16 0 017 88.081V21z"
            fill="#fff" />
    </g>
    <path d="M7 21c0-8.837 7.163-16 16-16h58c8.837 0 16 7.163 16 16v8H7v-8z" fill="#5CA747" />
    <path
        d="M34.14 13.456h-6.9v1.584h2.568V22h1.776v-6.96h2.556v-1.584zm.963 1.536h1.692v-1.536h-1.692v1.536zm0 7.008h1.692v-6.192h-1.692V22zm9.033-2.88c0-2.172-1.344-3.468-3.18-3.468-1.896 0-3.048 1.416-3.048 3.228 0 1.896 1.176 3.336 3.228 3.336 1.392 0 2.424-.66 2.844-2.004l-1.68-.12c-.204.54-.612.804-1.2.804-.84 0-1.38-.552-1.452-1.488h4.488v-.288zm-3.12-2.232c.768 0 1.272.504 1.368 1.368h-2.748c.084-.852.612-1.368 1.38-1.368zm7.248-1.296c-.648 0-1.14.372-1.404 1.044l.024-.828h-1.656V22h1.692v-3.012c0-1.2.504-1.788 1.536-1.788.12 0 .228.012.348.024v-1.548a1.69 1.69 0 00-.54-.084zm8.264.216l-.684 2.748-.288 1.56-.288-1.584-.696-2.724h-1.5l-.696 2.748-.288 1.56-.288-1.56-.684-2.748H49.34L51.176 22h1.608l.888-3.444.156-.816.144.816L54.86 22h1.608l1.836-6.192h-1.776zm5.407 6.396c1.86 0 3.168-1.404 3.168-3.276 0-1.872-1.308-3.276-3.168-3.276s-3.168 1.404-3.168 3.276c0 1.872 1.308 3.276 3.168 3.276zm0-1.32c-.948 0-1.536-.768-1.536-1.956s.588-1.956 1.536-1.956c.948 0 1.536.768 1.536 1.956s-.588 1.956-1.536 1.956zm7.726-5.232c-.792 0-1.368.324-1.776.984v-3.18h-1.692V22h1.692v-3.312c0-.924.492-1.512 1.212-1.512.6 0 .9.408.9 1.056V22h1.692v-4.152c0-1.344-.744-2.196-2.028-2.196zM73.13 22h1.691v-8.544H73.13V22z"
        fill="#fff" />
    <path
        d="M22.477 37.292l1.565 3.112 3.498.499a.54.54 0 01.433.355.515.515 0 01-.134.538l-2.535 2.423.598 3.422a.515.515 0 01-.212.512.54.54 0 01-.562.04l-3.13-1.614-3.13 1.614a.542.542 0 01-.741-.266.515.515 0 01-.032-.286l.598-3.422-2.532-2.423a.521.521 0 01-.134-.538.524.524 0 01.433-.355l3.498-.5 1.562-3.111A.528.528 0 0122 37a.541.541 0 01.478.292zM37.477 37.292l1.565 3.112 3.498.499a.54.54 0 01.433.355.515.515 0 01-.134.538l-2.535 2.423.598 3.422a.515.515 0 01-.212.512.54.54 0 01-.562.04l-3.13-1.614-3.13 1.614a.542.542 0 01-.741-.266.515.515 0 01-.032-.286l.598-3.422-2.532-2.423a.521.521 0 01-.134-.538.524.524 0 01.433-.355l3.498-.5 1.562-3.111a.528.528 0 01.478-.292.541.541 0 01.479.292zM52.477 37.292l1.565 3.112 3.498.499a.54.54 0 01.433.355.515.515 0 01-.134.538l-2.535 2.423.598 3.422a.515.515 0 01-.212.512.54.54 0 01-.562.04l-3.13-1.614-3.13 1.614a.542.542 0 01-.741-.266.515.515 0 01-.032-.286l.598-3.422-2.532-2.423a.521.521 0 01-.134-.538.524.524 0 01.433-.355l3.498-.5 1.562-3.111a.528.528 0 01.478-.292.541.541 0 01.479.292zM67.477 37.292l1.565 3.112 3.498.499a.54.54 0 01.433.355.515.515 0 01-.134.538l-2.535 2.423.598 3.422a.515.515 0 01-.212.512.54.54 0 01-.562.04l-3.13-1.614-3.13 1.614a.542.542 0 01-.741-.266.515.515 0 01-.032-.286l.598-3.422-2.532-2.423a.521.521 0 01-.134-.538.524.524 0 01.433-.355l3.498-.5 1.562-3.111A.528.528 0 0167 37a.541.541 0 01.478.292zM82.477 37.292l1.565 3.112 3.498.499a.54.54 0 01.433.355.515.515 0 01-.134.538l-2.535 2.423.598 3.422a.515.515 0 01-.212.512.54.54 0 01-.562.04l-3.13-1.614-3.13 1.614a.542.542 0 01-.741-.266.515.515 0 01-.032-.286l.598-3.422-2.532-2.423a.521.521 0 01-.134-.538.524.524 0 01.433-.355l3.499-.5 1.561-3.111A.528.528 0 0182 37a.541.541 0 01.478.292z"
        fill="#5CA747" />
    <g clip-path="url(#clip0)" fill="#5CA747">
        <path
            d="M78.857 85.863c4.569-1.42 4.569-7.378 3.76-10.386a.695.695 0 00-.695-.539.695.695 0 00-.681.553 4.625 4.625 0 01-4.91 3.179c-.808 0-1.546-.852-2.354-1.746a6.626 6.626 0 00-2.64-2.085c.019-.36-.06-.717-.226-1.036a1.192 1.192 0 00-.922-.638 1.135 1.135 0 00-.965.369.61.61 0 01-.298.198 1.546 1.546 0 00-.922.653l-.114.128a.724.724 0 00-.34.425c0 .156-.085.468.723 1.419a1.515 1.515 0 000 .51l-.666.795a.497.497 0 000 .568.483.483 0 00.425.24h.085l1.007-.183c-.03.313.045.627.213.893a.964.964 0 00.823.398 1.12 1.12 0 00.766-.298c.313.677.537 1.393.667 2.128.383 1.702.809 3.618 3.263 4.256.193.4.499.736.88.965a11.071 11.071 0 01-.482 1.532H57.888v-2.014c.426.136.872.198 1.32.184 1.801 0 2.213-.695 2.27-1.745.333-.427.73-.8 1.177-1.107.199-.17.397-.312.525-.44.525-.468.752-1.546.78-3.745a4.566 4.566 0 002.086-2.937.752.752 0 00-.114-.582.736.736 0 00-.525-.298h-.652a5.32 5.32 0 00-.837-3.518.709.709 0 00-.752-.284.696.696 0 00-.54.61 3.05 3.05 0 01-.794 1.504C61.094 71.363 58.81 66 53.25 66H38.877a7.094 7.094 0 00-5.676 6.172 16.531 16.531 0 00-4.866-.355 6.37 6.37 0 00-4.497 2.511v-.113a.71.71 0 00-.752-.412c-1.703.256-2.015 1.234-2.086 1.646a2.213 2.213 0 001.249 2.157 7.619 7.619 0 00.709 4.724c.114.284.255.653.27.71-.03.196-.087.387-.17.567a7.476 7.476 0 00-.355 4.497h-.185a.922.922 0 000 1.845h56.75a.922.922 0 100-1.845h-2.042c.072-.427.12-.858.142-1.29a2.611 2.611 0 001.49-.951zm-15.606-11.69c.099.414.099.847 0 1.262h-.284a2.982 2.982 0 00-.454-.355c.302-.277.573-.586.809-.922l-.071.014zm-1.958 4.397a.682.682 0 00.851-.652c0-.355.241-1.008.511-1.036a13.657 13.657 0 011.717 0c-.256.553-.681 1.135-1.22 1.206a.71.71 0 00-.625.71 7.888 7.888 0 01-.383 3.192l-.454.368c-.936.738-1.66 1.42-1.716 2.157-.008.094-.008.19 0 .284a1.886 1.886 0 01-.852.113c-.837 0-.851-.07-.965-.383a2.043 2.043 0 00-.908-1.22 2.468 2.468 0 01-.88-1.022 9.193 9.193 0 01-.524-3.83.709.709 0 00-.525-.695 2.71 2.71 0 01-1.419-.965c1.944-.497 2.313.44 2.455.809a.71.71 0 101.32-.511 3.035 3.035 0 00-.696-1.064 4.484 4.484 0 012.086-.525 4.17 4.17 0 012.284.539 3.262 3.262 0 00-.625 1.745.68.68 0 00.639.766l-.071.014zm-6.044-4.398c.207.299.44.579.695.837l-.383.312h-.298a2.723 2.723 0 01.057-1.163l-.071.014zM39.103 67.42h2.072a5.108 5.108 0 005.363 3.249 5.675 5.675 0 005.533-3.25h1.178c4.767 0 6.668 4.754 7.264 6.81a6.41 6.41 0 00-1.42-.141 6.91 6.91 0 00-1.702.27 4.256 4.256 0 01-1.347-2.1.695.695 0 00-.568-.582.709.709 0 00-.752.284 5.335 5.335 0 00-.851 3.433c-.298.071-.61.142-.965.256a.71.71 0 00-.468.624 2.837 2.837 0 002.029 2.71 9.931 9.931 0 00.666 3.915c.107.242.24.47.398.681a4.78 4.78 0 00-.653 2.143v2.412h-.567a15.092 15.092 0 00-1.107-5.335 11.62 11.62 0 01-.993-4.64.71.71 0 00-.61-.808.682.682 0 00-.809.71c-.056.863.026 1.73.241 2.567l-1.66.17.071-.382a.666.666 0 00-.198-.681.64.64 0 00-.667-.142s-1.022 0-2.114-3.15c.95-1.078 1.419-1.702 1.419-2.37a1.006 1.006 0 00-.398-.723c-.752-.61-2.582.128-3.532.809a11.577 11.577 0 00-5.59-1.178 12.552 12.552 0 01-2.114-.156l-.993-.198-.639-.128a5.675 5.675 0 014.483-5.08zm2.341 20.657a7.549 7.549 0 01-.68-2.667 3.59 3.59 0 01.269-1.192c1.37.16 2.757.055 4.086-.312a11.35 11.35 0 013.093-.156.71.71 0 00.752-.582l.184-.936 2.313-.213c.142.397.284.808.411 1.206a14.091 14.091 0 011.036 4.88l-11.464-.028zm-12.215 0a23.477 23.477 0 01-.639-3.746l.44-.34a9.818 9.818 0 004.427.894 20.532 20.532 0 002.667-.185 23.18 23.18 0 00-.936 3.405l-5.96-.028zm-6.143-11.648a1.986 1.986 0 001.418-.51.625.625 0 00.17-.214 4.682 4.682 0 013.902-2.426 17.777 17.777 0 015.193.483h.113l1.136.227.993.198c.782.133 1.575.194 2.369.185 1.856-.078 3.697.359 5.32 1.262a.724.724 0 00.894-.156 4.13 4.13 0 011.547-.823l-.994 1.164a.667.667 0 00-.141.68c.737 2.328 1.66 3.775 2.724 4.257l.198.085-.27 1.419a10.783 10.783 0 00-2.965.241 10.185 10.185 0 01-3.15.355c.078-.265.135-.535.171-.809a.695.695 0 00-.596-.794.71.71 0 00-.794.596c-.087.49-.24.968-.454 1.418a5.192 5.192 0 00-.525 2.015 5.34 5.34 0 00.085 1.05c-.383-.724-.766-1.419-.95-1.774a5.462 5.462 0 01.07-3.277.725.725 0 00-1.419-.298c-.149.692-.244 1.394-.283 2.1a14.344 14.344 0 01-6.796-.057 8.217 8.217 0 001.035-1.745.711.711 0 00-.368-.936.723.723 0 00-.937.369 6.17 6.17 0 01-2.185 2.681.653.653 0 00-.283.184c-.426.27-.852.497-1.235.696l-.198.113a.567.567 0 00-.242.142 3.206 3.206 0 00-1.12.851 3.873 3.873 0 00-.483 1.646 5.051 5.051 0 01.34-2.837c.141-.302.237-.622.284-.951a3.122 3.122 0 00-.383-1.419 6.257 6.257 0 01-.624-3.859 1.419 1.419 0 00-.567-1.532zm15.606 11.676h-1.007c.184-.34.354-.666.525-.936l.482.936zm-13.01-1.972c.213.582.51 1.419.795 2.015h-1.079a4.583 4.583 0 01.284-2.015zM68.784 75.35l-.156-.199a.667.667 0 00.128-.17.61.61 0 01.383-.284c.286-.076.546-.228.752-.44.113-.1.113-.113.198-.1a.355.355 0 01.142.185c.058.11.088.231.085.355a2.837 2.837 0 00-.808.156 1.845 1.845 0 00-.724.497zm6.682 8.938c-1.801-.312-2.128-1.419-2.54-3.235a6.512 6.512 0 00-1.83-3.816.695.695 0 00-.44-.185c-.439 0-.893 0-.95-.312a.582.582 0 01.312-.567c1.008-.341 1.788.411 2.937 1.688a5.023 5.023 0 003.377 2.227 6.284 6.284 0 005.264-2.213c.156 2.313-.128 5.86-3.32 6.668a.723.723 0 00-.454.383 1.092 1.092 0 01-1.164.525c-.425-.07-.567-.596-.567-.61a.71.71 0 00-.625-.553z" />
        <path
            d="M78.063 83.408a2.71 2.71 0 002.114-1.035 3.277 3.277 0 00.411-2.554.495.495 0 00-.94-.175.497.497 0 00-.01.416 2.47 2.47 0 01-.242 1.73 1.746 1.746 0 01-1.418.625 3.959 3.959 0 01-3.533-2.227.482.482 0 00-.667-.242.497.497 0 00-.241.653 5.022 5.022 0 004.256 2.838l.27-.029z" />
    </g>
    <defs>
        <clipPath id="clip0">
            <path fill="#fff" transform="translate(21 66)" d="M0 0h62v23.949H0z" />
        </clipPath>
        <filter id="filter0_d" x="0" y="0" width="104" height="124.34" filterUnits="userSpaceOnUse"
            color-interpolation-filters="sRGB">
            <feFlood flood-opacity="0" result="BackgroundImageFix" />
            <feColorMatrix in="SourceAlpha" values="0 0 0 0 0 0 0 0 0 0 0 0 0 0 0 0 0 0 127 0" />
            <feOffset dy="2" />
            <feGaussianBlur stdDeviation="3.5" />
            <feColorMatrix values="0 0 0 0 0 0 0 0 0 0 0 0 0 0 0 0 0 0 0.1 0" />
            <feBlend in2="BackgroundImageFix" result="effect1_dropShadow" />
            <feBlend in="SourceGraphic" in2="effect1_dropShadow" result="shape" />
        </filter>
    </defs>
</svg>