<svg xmlns="http://www.w3.org/2000/svg" width="104" height="125" fill="none">
    <g filter="url(#filter0_d)">
        <path
            d="M7 21c0-8.837 7.163-16 16-16h58c8.837 0 16 7.163 16 16v66.892a16 16 0 01-8.468 14.116l-14.396 7.681a48 48 0 01-45.928-.402l-12.986-7.223A16 16 0 017 88.081V21z"
            fill="#fff" />
    </g>
    <path d="M7 21c0-8.837 7.163-16 16-16h58c8.837 0 16 7.163 16 16v8H7v-8z" fill="#5CA747" />
    <path
        d="M42.048 22h2.196l-3.636-5.112 3.24-3.432H41.58l-3.024 3.3v-3.3H36.78V22h1.776v-3.132l.792-.792 2.7 3.924zm2.98 0h1.693v-8.544h-1.692V22zm3.13-7.008h1.691v-1.536h-1.691v1.536zm0 7.008h1.691v-6.192h-1.691V22zm10.088-6.348c-.84 0-1.428.36-1.824 1.116-.276-.696-.888-1.116-1.776-1.116-.744 0-1.296.312-1.68.948l-.024-.792h-1.656V22h1.692v-3.312c0-.924.444-1.512 1.104-1.512.588 0 .828.468.828 1.02V22h1.692v-3.312c0-.924.444-1.512 1.104-1.512.588 0 .828.468.828 1.02V22h1.692v-4.14c0-1.296-.696-2.208-1.98-2.208zM67.153 22c-.18-.312-.24-.72-.24-1.296v-2.736c0-1.524-.9-2.304-2.676-2.304-1.668 0-2.52.636-2.64 1.992l1.548.024c.084-.576.408-.816 1.104-.816.672 0 1.044.216 1.044.672v.456l-2.16.432c-1.248.252-1.884.888-1.884 1.872 0 1.128.84 1.884 2.148 1.884.816 0 1.488-.3 1.908-.804.036.216.084.408.132.624h1.716zm-3.276-1.068c-.624 0-.972-.3-.972-.744 0-.408.288-.672.804-.78l1.584-.336v.456c0 .912-.612 1.404-1.416 1.404z"
        fill="#fff" />
    <path
        d="M22.477 37.292l1.565 3.112 3.498.499a.54.54 0 01.433.355.515.515 0 01-.134.538l-2.535 2.423.598 3.422a.515.515 0 01-.212.512.54.54 0 01-.562.04l-3.13-1.614-3.13 1.614a.542.542 0 01-.741-.266.515.515 0 01-.032-.286l.598-3.422-2.532-2.423a.521.521 0 01-.134-.538.524.524 0 01.433-.355l3.498-.5 1.562-3.111A.528.528 0 0122 37a.541.541 0 01.478.292zM37.477 37.292l1.565 3.112 3.498.499a.54.54 0 01.433.355.515.515 0 01-.134.538l-2.535 2.423.598 3.422a.515.515 0 01-.212.512.54.54 0 01-.562.04l-3.13-1.614-3.13 1.614a.542.542 0 01-.741-.266.515.515 0 01-.032-.286l.598-3.422-2.532-2.423a.521.521 0 01-.134-.538.524.524 0 01.433-.355l3.498-.5 1.562-3.111a.528.528 0 01.478-.292.541.541 0 01.479.292z"
        fill="#5CA747" />
    <path opacity=".3"
        d="M52.477 37.292l1.565 3.112 3.498.499a.54.54 0 01.433.355.515.515 0 01-.134.538l-2.535 2.423.598 3.422a.515.515 0 01-.212.512.54.54 0 01-.562.04l-3.13-1.614-3.13 1.614a.542.542 0 01-.741-.266.515.515 0 01-.032-.286l.598-3.422-2.532-2.423a.521.521 0 01-.134-.538.524.524 0 01.433-.355l3.498-.5 1.562-3.111a.528.528 0 01.478-.292.541.541 0 01.479.292zM67.477 37.292l1.565 3.112 3.498.499a.54.54 0 01.433.355.515.515 0 01-.134.538l-2.535 2.423.598 3.422a.515.515 0 01-.212.512.54.54 0 01-.562.04l-3.13-1.614-3.13 1.614a.542.542 0 01-.741-.266.515.515 0 01-.032-.286l.598-3.422-2.532-2.423a.521.521 0 01-.134-.538.524.524 0 01.433-.355l3.498-.5 1.562-3.111A.528.528 0 0167 37a.541.541 0 01.478.292zM82.477 37.292l1.565 3.112 3.498.499a.54.54 0 01.433.355.515.515 0 01-.134.538l-2.535 2.423.598 3.422a.515.515 0 01-.212.512.54.54 0 01-.562.04l-3.13-1.614-3.13 1.614a.542.542 0 01-.741-.266.515.515 0 01-.032-.286l.598-3.422-2.532-2.423a.521.521 0 01-.134-.538.524.524 0 01.433-.355l3.499-.5 1.561-3.111A.528.528 0 0182 37a.541.541 0 01.478.292z"
        fill="#5CA747" />
    <g clip-path="url(#clip0)" fill="#5CA747">
        <path
            d="M47.4 83.865a2.395 2.395 0 01-2.223-1.292 6.428 6.428 0 01-.483-3.084 5.41 5.41 0 01.638-2.964 2.413 2.413 0 012.068-1c.628.033 1.231.262 1.723.656l1.05-1.586a4.808 4.808 0 00-2.911-.913 4.964 4.964 0 00-4.411 2.67 7.548 7.548 0 00-.776 3.585 6.03 6.03 0 001.396 4.135 4.722 4.722 0 003.756 1.585 4.67 4.67 0 003.188-1.068l-1.051-1.465a2.93 2.93 0 01-1.964.741zM56.014 73.786a5.17 5.17 0 00-2.395.568 5.859 5.859 0 00-2.601 5.393 6.892 6.892 0 001.326 4.273 4.254 4.254 0 003.74 1.62 4.411 4.411 0 002.308-.534 5.807 5.807 0 002.568-5.462c-.07-3.619-1.965-5.858-4.946-5.858zm0 10.08a2.223 2.223 0 01-1.378-.397c-.69-.505-1.034-1.746-1.034-3.722a6.72 6.72 0 01.586-3.153 1.998 1.998 0 011.723-1.016 2.085 2.085 0 012.016 1.464c.223.872.322 1.771.293 2.67 0 2.965-.672 4.153-2.206 4.153zM64.388 84.107c.93-.828 2.413-2.12 2.413-3.447a1.931 1.931 0 00-2.171-1.93 3.946 3.946 0 00-2.723 1.069l.913 1.051a2.395 2.395 0 011.43-.69c.38 0 .638.121.638.69s-.138.93-1.017 1.844c-.448.482-1.275 1.257-1.723 1.723v1.12h4.55l.378-1.379h-2.688v-.051z" />
        <path
            d="M68.662 70.925c-.433.003-.864.032-1.293.087a8.322 8.322 0 00-1.723-2.844 6.995 6.995 0 00-8.615-1.499c-.276-.361-.551-.723-.861-1.068a10.44 10.44 0 00-15.783 0 12.974 12.974 0 00-3.188 9.39 7.322 7.322 0 00-4.204 2.31 8.338 8.338 0 00-1.585 2.636A6.55 6.55 0 0025 86.829a6.565 6.565 0 006.272 6.892h37.39A10.873 10.873 0 0079 82.401c0-6.393-4.635-11.476-10.338-11.476zm0 20.418h-37.39a4.342 4.342 0 01-4.032-4.583 4.342 4.342 0 014.032-4.583c.24-.017.483-.017.723 0l1.052.224.258-1.051a5.91 5.91 0 011.361-2.602 4.98 4.98 0 013.74-1.723h1.343l-.207-1.24a10.7 10.7 0 012.516-8.616 8.167 8.167 0 0112.44 0 9.808 9.808 0 011.224 1.723l.672 1.155 1.016-.845a4.703 4.703 0 016.634.569 5.979 5.979 0 011.413 2.86l.241 1.155 1.137-.293a7.188 7.188 0 011.827-.242c4.462 0 8.098 4.084 8.098 9.098a8.615 8.615 0 01-8.098 8.943v.051z" />
    </g>
    <defs>
        <clipPath id="clip0">
            <path fill="#fff" transform="translate(25 62)" d="M0 0h54v31.583H0z" />
        </clipPath>
        <filter id="filter0_d" x="0" y="0" width="104" height="124.34" filterUnits="userSpaceOnUse"
            color-interpolation-filters="sRGB">
            <feFlood flood-opacity="0" result="BackgroundImageFix" />
            <feColorMatrix in="SourceAlpha" values="0 0 0 0 0 0 0 0 0 0 0 0 0 0 0 0 0 0 127 0" />
            <feOffset dy="2" />
            <feGaussianBlur stdDeviation="3.5" />
            <feColorMatrix values="0 0 0 0 0 0 0 0 0 0 0 0 0 0 0 0 0 0 0.1 0" />
            <feBlend in2="BackgroundImageFix" result="effect1_dropShadow" />
            <feBlend in="SourceGraphic" in2="effect1_dropShadow" result="shape" />
        </filter>
    </defs>
</svg>