<svg width="375" height="622" viewBox="0 0 375 622" fill="none" xmlns="http://www.w3.org/2000/svg">
    <g clip-path="url(#clip0)">
        <path
            d="M95.8579 91.633C95.8579 92.1829 95.84 92.7282 95.8044 93.2689C95.6046 96.3875 94.8167 99.4401 93.4824 102.266C93.472 102.29 93.4599 102.312 93.4497 102.335C93.3875 102.466 93.3237 102.597 93.2582 102.726C92.8614 103.525 92.4211 104.302 91.9395 105.053C89.7393 108.502 86.7237 111.355 83.159 113.361C79.5944 115.367 75.5905 116.464 71.5012 116.555L71.7478 130.732L74.9628 129.039L75.5368 130.131L71.7719 132.113L72.2322 158.443L72.2373 158.795L69.7515 159.348L69.7566 158.995L70.5393 116.557C67.2478 116.51 63.9985 115.809 60.98 114.496C57.9615 113.182 55.234 111.282 52.9558 108.906C52.799 108.744 52.6438 108.577 52.4921 108.411L52.4748 108.392C50.5767 106.322 49.0415 103.947 47.9342 101.366C47.9583 101.394 47.9841 101.419 48.0083 101.447C45.5055 95.5944 45.3358 89.0062 47.5339 83.0325C49.7319 77.0589 54.1313 72.152 59.8306 69.3174C59.9168 69.2743 60.0047 69.2329 60.0909 69.1898C65.7285 66.4744 72.1806 65.9761 78.1683 67.7938C84.1559 69.6115 89.2421 73.6126 92.4187 79.0038C92.5705 79.259 92.717 79.5193 92.8583 79.7813C94.8316 83.4196 95.8627 87.494 95.8579 91.633Z"
            fill="#E5E5E5" />
        <path
            d="M92.5021 102.348C110.548 102.348 125.176 87.7197 125.176 69.6742C125.176 51.6287 110.548 37 92.5021 37C74.4566 37 59.8279 51.6287 59.8279 69.6742C59.8279 87.7197 74.4566 102.348 92.5021 102.348Z"
            fill="#E5E5E5" />
        <path
            d="M252.949 37.4777C219.789 62.1188 188.511 89.1946 159.372 118.481C145.333 132.601 131.144 147.035 119.013 162.861C109.242 175.608 99.0885 191.816 100.422 208.603C100.631 212.035 101.632 215.372 103.345 218.354C105.059 221.335 107.439 223.88 110.299 225.788C117.11 230.281 125.732 231.543 133.736 231.481C152.158 231.34 170.046 225.243 188.096 222.266C221.052 216.83 255.947 217.496 287.612 228.967C301.545 234.015 317.919 242.534 320.664 258.676C323.354 274.489 312.561 289.771 302.704 300.978C290.35 315.024 275.266 326.682 260.027 337.41C243.211 349.041 225.796 359.783 207.855 369.59C172.921 389.059 136.942 406.725 103.634 428.98C86.8293 440.015 71.031 452.511 56.423 466.323C43.3247 478.91 31.1645 492.856 22.3222 508.807C15.5085 521.098 9.69246 535.924 12.4312 550.214C15.0711 563.988 26.1918 573.096 39.1545 576.972C54.7513 581.635 71.4323 579.801 86.9256 575.691C104.566 571.011 121.334 563.503 137.636 555.404C145.904 551.296 154.075 546.998 162.241 542.691C163.944 541.793 162.702 539.061 160.992 539.963C144.526 548.647 128.011 557.355 110.759 564.401C94.7948 570.921 77.585 576.554 60.1749 576.725C46.0901 576.863 29.766 573.5 20.7065 561.705C11.5738 549.814 14.4787 533.723 19.7772 520.873C26.3988 504.815 37.2782 490.57 49.0905 477.985C62.7178 463.696 77.7051 450.769 93.8399 439.387C126.215 416.166 161.785 398.133 196.696 379.143C230.612 360.694 265.068 341.052 293.51 314.619C304.783 304.142 315.983 291.869 321.392 277.202C323.869 270.487 324.941 263.048 323.17 256.024C321.363 249.444 317.605 243.566 312.391 239.164C301.211 229.264 285.687 224.411 271.42 221.026C255.868 217.418 239.93 215.741 223.968 216.03C206.483 216.388 189.079 218.5 172.016 222.334C162.917 224.307 153.836 226.482 144.592 227.68C135.729 228.829 126.316 229.162 117.768 226.127C110.375 223.502 104.854 218.057 103.617 210.141C102.366 202.134 104.784 193.788 107.963 186.505C115.621 168.958 129.426 154.398 142.294 140.55C169.936 110.828 199.732 83.1845 231.439 57.8438C239.143 51.6818 246.956 45.6592 254.877 39.7758C256.427 38.623 254.494 36.3288 252.949 37.4777Z"
            fill="#000000" />
        <path d="M316.861 82.0619L316.058 83.6289L320.758 86.0375L321.561 84.4705L316.861 82.0619Z"
            fill="#CBCBCB" />
        <path
            d="M367.952 7.05212L374.181 2.06978C369.342 1.53586 367.353 4.17515 366.539 6.26417C362.759 4.69427 358.643 6.75169 358.643 6.75169L371.107 11.2765C370.478 9.59706 369.384 8.13165 367.952 7.05212Z"
            fill="#3F3D56" />
        <path
            d="M347.72 22.8253L353.949 17.843C349.11 17.3091 347.121 19.9483 346.308 22.0374C342.527 20.4675 338.411 22.5249 338.411 22.5249L350.875 27.0497C350.246 25.3703 349.152 23.9048 347.72 22.8253Z"
            fill="#3F3D56" />
        <path
            d="M294.562 55.1813C304.928 55.1813 313.331 46.7784 313.331 36.4129C313.331 26.0473 304.928 17.6444 294.562 17.6444C284.197 17.6444 275.794 26.0473 275.794 36.4129C275.794 46.7784 284.197 55.1813 294.562 55.1813Z"
            fill="#C7D61C" />
        <path
            d="M353.417 94.2473H261.344C261.229 94.2487 261.114 94.2396 261 94.22L304.547 18.7958C304.813 18.3259 305.199 17.9351 305.665 17.6631C306.131 17.3911 306.661 17.2478 307.201 17.2478C307.741 17.2478 308.271 17.3911 308.737 17.6631C309.203 17.9351 309.589 18.3259 309.854 18.7958L339.078 69.4096L340.478 71.8311L353.417 94.2473Z"
            fill="#5CAF3B" />
        <path
            d="M404.679 94.2481H325.045L340.476 71.8337L341.586 70.2185L361.694 41.0086C362.05 40.5617 362.495 40.1946 363.002 39.9313C363.509 39.668 364.065 39.5143 364.636 39.4803C365.206 39.4462 365.777 39.5326 366.311 39.7337C366.846 39.9349 367.332 40.2463 367.738 40.6477C367.842 40.7618 367.939 40.8823 368.028 41.0086L404.679 94.2481Z"
            fill="#5CAF3B" />
        <path
            d="M179.82 302.379C188.547 306.741 193.86 312.502 193.86 318.82C193.86 332.432 169.229 343.467 138.845 343.467C125.635 343.467 113.516 341.38 104.032 337.903C114.105 342.938 128.727 346.108 145.007 346.108C175.39 346.108 200.022 335.073 200.022 321.461C200.022 313.767 192.149 306.898 179.82 302.379Z"
            fill="#0A84FF" fill-opacity="0.56" />
        <path
            d="M199.232 311.729C209.08 316.651 215.075 323.151 215.075 330.281C215.075 345.641 187.282 358.092 152.997 358.092C138.091 358.092 124.416 355.737 113.715 351.814C125.081 357.495 141.58 361.072 159.95 361.072C194.234 361.072 222.028 348.621 222.028 333.261C222.028 324.579 213.144 316.829 199.232 311.729Z"
            fill="#0A84FF" fill-opacity="0.56" />
        <path
            d="M172.391 306.497C178.539 309.57 182.282 313.629 182.282 318.081C182.282 327.671 164.929 335.445 143.523 335.445C135.183 335.553 126.887 334.227 118.996 331.525C126.093 335.072 136.394 337.305 147.864 337.305C169.27 337.305 186.623 329.531 186.623 319.941C186.623 314.521 181.077 309.681 172.391 306.497Z"
            fill="#0A84FF" fill-opacity="0.56" />
        <path
            d="M86 304.737C86 304.737 87.3511 324.485 126.082 324.485C164.812 324.485 176.375 304.737 176.375 304.737H86Z"
            fill="#3F3D56" />
        <path
            d="M140.974 252.921C135.382 248.673 128.365 246.754 121.39 247.564C127.623 249.067 133.128 252.717 136.938 257.874C140.748 263.03 142.62 269.364 142.226 275.764C141.832 282.164 139.196 288.22 134.782 292.87C130.368 297.52 124.457 300.467 118.086 301.193C124.18 302.664 130.594 301.992 136.25 299.291C141.907 296.589 146.461 292.022 149.146 286.358C151.832 280.694 152.485 274.278 150.997 268.188C149.509 262.099 145.969 256.708 140.974 252.921Z"
            fill="#3F3D56" />
        <path d="M128.282 244H125.641V306.858H128.282V244Z" fill="#3F3D56" />
        <path
            d="M25.5629 573.126C31.3966 573.126 36.1257 568.397 36.1257 562.563C36.1257 556.729 31.3966 552 25.5629 552C19.7292 552 15 556.729 15 562.563C15 568.397 19.7292 573.126 25.5629 573.126Z"
            fill="#FD6721" />
        <path
            d="M153.563 553.126C159.397 553.126 164.126 548.397 164.126 542.563C164.126 536.729 159.397 532 153.563 532C147.729 532 143 536.729 143 542.563C143 548.397 147.729 553.126 153.563 553.126Z"
            fill="#FD6721" />
        <path
            d="M136.563 422.126C142.397 422.126 147.126 417.397 147.126 411.563C147.126 405.729 142.397 401 136.563 401C130.729 401 126 405.729 126 411.563C126 417.397 130.729 422.126 136.563 422.126Z"
            fill="#FD6721" />
        <path
            d="M322.563 285.126C328.397 285.126 333.126 280.397 333.126 274.563C333.126 268.729 328.397 264 322.563 264C316.729 264 312 268.729 312 274.563C312 280.397 316.729 285.126 322.563 285.126Z"
            fill="#FD6721" />
        <path
            d="M106.563 230.126C112.397 230.126 117.126 225.397 117.126 219.563C117.126 213.729 112.397 209 106.563 209C100.729 209 96 213.729 96 219.563C96 225.397 100.729 230.126 106.563 230.126Z"
            fill="#FD6721" />
        <path
            d="M250.563 53.1257C256.397 53.1257 261.126 48.3966 261.126 42.5629C261.126 36.7292 256.397 32 250.563 32C244.729 32 240 36.7292 240 42.5629C240 48.3966 244.729 53.1257 250.563 53.1257Z"
            fill="#FD6721" />
        <path d="M221.747 601.023L218.712 602.15L212.918 590.98L217.397 589.316L221.747 601.023Z"
            fill="#FFB7B7" />
        <path
            d="M223.614 603.677L213.827 607.313L213.781 607.189C213.406 606.179 213.448 605.061 213.896 604.081C214.345 603.101 215.165 602.34 216.175 601.964L216.175 601.964L222.153 599.744L223.614 603.677Z"
            fill="#2F2E41" />
        <path d="M191.878 604.174L188.64 604.174L187.1 591.686L191.879 591.686L191.878 604.174Z"
            fill="#FFB7B7" />
        <path
            d="M192.44 607.313L182 607.312V607.18C182 606.102 182.428 605.069 183.19 604.307C183.952 603.545 184.986 603.117 186.063 603.117H186.064L192.44 603.117L192.44 607.313Z"
            fill="#2F2E41" />
        <path
            d="M206.702 517.561L205.645 515.448L196.666 519.938L196.93 521.787L195.213 524.031C195.213 524.031 192.308 525.616 192.837 530.898L193.365 535.916L194.025 542.386L189.403 558.364L187.026 579.491L185.31 596.526L193.629 596.129L201.288 568.399L214.757 598.242L224 595.865L211.323 566.287L209.739 553.874C209.739 553.874 210.795 547.272 205.777 542.782L206.57 540.405V537.476L209.21 523.503L206.702 517.561Z"
            fill="#2F2E41" />
        <path opacity="0.2"
            d="M206.949 547.758L201.138 568.357L201.437 568.442L207.247 547.842L206.949 547.758Z"
            fill="black" />
        <path d="M206.438 542.386H193.497V543.706H206.438V542.386Z" fill="#3F3D56" />
        <path
            d="M193.497 544.499C193.789 544.499 194.025 543.907 194.025 543.178C194.025 542.449 193.789 541.858 193.497 541.858C193.205 541.858 192.969 542.449 192.969 543.178C192.969 543.907 193.205 544.499 193.497 544.499Z"
            fill="#3F3D56" />
        <path
            d="M202.709 514.145C206.121 512.281 207.374 508.003 205.509 504.592C203.645 501.18 199.367 499.927 195.956 501.792C192.545 503.656 191.291 507.934 193.156 511.345C195.021 514.757 199.298 516.01 202.709 514.145Z"
            fill="#FFB7B7" />
        <path
            d="M210.105 505.455C213.544 505.455 216.333 502.667 216.333 499.228C216.333 495.788 213.544 493 210.105 493C206.665 493 203.877 495.788 203.877 499.228C203.877 502.667 206.665 505.455 210.105 505.455Z"
            fill="#2F2E41" />
        <path
            d="M218.008 498.561C218.254 499.386 218.325 500.253 218.219 501.107C218.113 501.962 217.83 502.785 217.39 503.524C216.949 504.264 216.36 504.904 215.66 505.405C214.959 505.906 214.163 506.255 213.32 506.433C212.478 506.61 211.607 506.61 210.765 506.434C209.922 506.258 209.125 505.909 208.424 505.409C207.723 504.91 207.133 504.27 206.692 503.531C206.25 502.792 205.967 501.969 205.859 501.115C206.306 502.613 207.299 503.889 208.642 504.688C209.985 505.488 211.58 505.754 213.11 505.432C214.639 505.11 215.992 504.225 216.9 502.952C217.807 501.679 218.203 500.112 218.008 498.561Z"
            fill="#2F2E41" />
        <path
            d="M193.405 506.014C193.222 507.624 193.575 509.249 194.41 510.638C195.244 512.026 196.514 513.101 198.021 513.695C199.528 514.289 201.189 514.369 202.747 513.924C204.305 513.478 205.672 512.531 206.636 511.229C207.601 509.928 208.11 508.344 208.083 506.724C208.057 505.104 207.497 503.538 206.49 502.269C205.483 501 204.086 500.098 202.515 499.703C200.943 499.309 199.286 499.443 197.799 500.086C196.569 499.094 195.044 499.402 193.804 500.449C192.403 501.632 191.987 502.445 190.899 504.392C191.968 504.542 192.336 505.864 193.405 506.014Z"
            fill="#2F2E41" />
        <path
            d="M219.281 527.184C219.202 529.271 219.046 533.377 219.046 533.586C219.046 533.807 215.933 540.253 214.588 543.027V543.029C214.493 543.224 214.407 543.402 214.331 543.558C214.227 543.773 214.063 543.954 213.859 544.079C213.656 544.204 213.42 544.268 213.181 544.264L207.304 544.158C206.981 544.153 206.672 544.023 206.443 543.795C206.214 543.568 206.081 543.26 206.073 542.937L205.417 517.079C205.415 516.994 205.43 516.909 205.461 516.83C205.492 516.75 205.539 516.678 205.599 516.617C205.658 516.556 205.729 516.507 205.808 516.474C205.886 516.441 205.971 516.424 206.056 516.424H213.636C213.956 516.424 214.27 516.514 214.541 516.684C214.812 516.855 215.03 517.098 215.169 517.386L218.807 524.912C219.148 525.62 219.311 526.4 219.281 527.184V527.184Z"
            fill="#FD6721" />
        <path
            d="M205.971 541.163C204.463 540.249 203.107 539.104 201.955 537.769C199.277 534.757 197.648 530.958 197.313 526.941C197.014 523.505 197.696 520.95 199.34 519.349C201.429 517.313 204.273 517.609 204.393 517.623L204.52 517.637L206.447 519.267L205.902 519.912L204.178 518.453C203.65 518.426 201.496 518.421 199.922 519.96C198.474 521.377 197.879 523.701 198.154 526.868C198.473 530.692 200.02 534.311 202.564 537.184C203.661 538.453 204.948 539.546 206.378 540.424L205.971 541.163Z"
            fill="#FD6721" />
        <path d="M216.908 531.339L206.638 533.448L206.695 533.724L216.965 531.615L216.908 531.339Z"
            fill="#3F3D56" />
        <path d="M210.139 516.418L209.858 516.43L210.525 532.771L210.806 532.759L210.139 516.418Z"
            fill="#3F3D56" />
        <path
            d="M219.281 527.184C219.202 529.271 219.046 533.377 219.046 533.587C219.046 533.808 215.933 540.253 214.588 543.027L217.095 528.472C217.192 527.912 217.436 527.387 217.802 526.953C218.168 526.518 218.643 526.188 219.178 525.997C219.263 526.387 219.297 526.786 219.281 527.184Z"
            fill="#3F3D56" />
        <path
            d="M203.879 557.69C204.101 557.404 204.258 557.072 204.338 556.719C204.418 556.366 204.42 556 204.343 555.646C204.266 555.292 204.112 554.96 203.893 554.672C203.674 554.384 203.394 554.147 203.074 553.979L203.583 548.343L200.234 547.198L199.626 555.167C199.379 555.724 199.345 556.353 199.53 556.933C199.716 557.514 200.108 558.007 200.632 558.317C201.156 558.628 201.776 558.736 202.375 558.621C202.973 558.505 203.509 558.174 203.879 557.69Z"
            fill="#FFB7B7" />
        <path
            d="M204.317 552.236L198.382 552.021L198.633 523.398C198.628 522.588 198.879 521.798 199.349 521.138C199.818 520.478 200.483 519.982 201.25 519.721C201.967 519.483 202.741 519.482 203.458 519.719C204.271 519.994 204.969 520.532 205.442 521.249C205.915 521.965 206.137 522.818 206.071 523.674L204.317 552.236Z"
            fill="#CBCBCB" />
        <path opacity="0.2"
            d="M251.279 395C248.231 402.129 247.818 410.11 250.113 417.516C252.407 424.922 257.261 431.271 263.806 435.428C270.351 439.585 278.16 441.279 285.839 440.208C293.518 439.137 300.567 435.371 305.724 429.581C303.862 433.937 301.076 437.836 297.558 441.008C294.039 444.18 289.874 446.549 285.349 447.951C280.824 449.353 276.049 449.754 271.354 449.128C266.658 448.501 262.156 446.861 258.157 444.321C254.159 441.781 250.76 438.403 248.197 434.419C245.634 430.436 243.967 425.943 243.313 421.251C242.659 416.56 243.033 411.782 244.408 407.249C245.784 402.716 248.128 398.537 251.279 395Z"
            fill="black" />
        <path
            d="M277.172 507.848L273.835 506.912L273.842 506.553L274.842 452.203L274.892 449.493L274.893 449.414L275.068 439.918L275.321 426.155V426.153L275.493 416.824H275.585L275.761 426.931L275.99 440.086L276.154 449.42V449.489L276.161 449.874V449.876L276.478 468.071L276.511 469.879L277.166 507.486L277.172 507.848Z"
            fill="#3F3D56" />
        <path d="M280.691 465.853L275.29 468.697L276.043 470.126L281.444 467.283L280.691 465.853Z"
            fill="#3F3D56" />
    </g>
    <defs>
        <linearGradient id="paint0_linear" x1="238.5" y1="48" x2="138.5" y2="552.5"
            gradientUnits="userSpaceOnUse">
            <stop />
            <stop offset="1" stop-opacity="0.28" />
        </linearGradient>
        <clipPath id="clip0">
            <rect width="477" height="622" fill="white" transform="translate(-36)" />
        </clipPath>
    </defs>
</svg>
