<svg width="44" height="44" viewBox="0 0 44 44" fill="none" xmlns="http://www.w3.org/2000/svg">
    <mask id="path-1-outside-1" maskUnits="userSpaceOnUse" x="8.54492" y="11.0854" width="27"
        height="22" fill="black">
        <rect fill="white" x="8.54492" y="11.0854" width="27" height="22" />
        <path fill-rule="evenodd" clip-rule="evenodd"
            d="M21.7334 13.1529C21.582 13.0598 21.3903 13.0633 21.2426 13.162L10.748 20.1671C10.3739 20.4168 10.5507 21.0001 11.0005 21.0001H14.0001V30.0906C14.0001 30.5929 14.4073 31.0001 14.9096 31.0001H29.0906C29.5929 31.0001 30.0001 30.5929 30.0001 30.0906V21.0001H32.8784C33.3369 21.0001 33.5072 20.3984 33.1167 20.158L21.7334 13.1529Z" />
    </mask>
    <path
        d="M21.2426 13.162L20.2327 11.649L20.2326 11.649L21.2426 13.162ZM21.7334 13.1529L22.6867 11.6037L22.6867 11.6037L21.7334 13.1529ZM10.748 20.1671L11.7579 21.6801L11.7579 21.6801L10.748 20.1671ZM14.0001 21.0001H15.8192V19.181H14.0001V21.0001ZM30.0001 21.0001V19.181H28.1811V21.0001H30.0001ZM33.1167 20.158L32.1633 21.7072L32.1633 21.7072L33.1167 20.158ZM22.2525 14.6749C21.8091 14.9709 21.234 14.9815 20.78 14.7021L22.6867 11.6037C21.9301 11.1381 20.9716 11.1558 20.2327 11.649L22.2525 14.6749ZM11.7579 21.6801L22.2525 14.6749L20.2326 11.649L9.73814 18.6541L11.7579 21.6801ZM11.0005 19.181C12.35 19.181 12.8803 20.9309 11.7579 21.6801L9.73814 18.6541C7.86754 19.9028 8.75146 22.8192 11.0005 22.8192V19.181ZM14.0001 19.181H11.0005V22.8192H14.0001V19.181ZM15.8192 30.0906V21.0001H12.1811V30.0906H15.8192ZM14.9096 29.181C15.4119 29.181 15.8192 29.5883 15.8192 30.0906H12.1811C12.1811 31.5975 13.4027 32.8192 14.9096 32.8192V29.181ZM29.0906 29.181H14.9096V32.8192H29.0906V29.181ZM28.1811 30.0906C28.1811 29.5883 28.5883 29.181 29.0906 29.181V32.8192C30.5975 32.8192 31.8192 31.5975 31.8192 30.0906H28.1811ZM28.1811 21.0001V30.0906H31.8192V21.0001H28.1811ZM32.8784 19.181H30.0001V22.8192H32.8784V19.181ZM32.1633 21.7072C30.9918 20.9863 31.5027 19.181 32.8784 19.181V22.8192C35.1711 22.8192 36.0227 19.8104 34.0701 18.6088L32.1633 21.7072ZM20.78 14.7021L32.1633 21.7072L34.0701 18.6088L22.6867 11.6037L20.78 14.7021Z"
        fill="#595959" mask="url(#path-1-outside-1)" />
    <path d="M18 31V23C18 22.4477 18.4477 22 19 22H25C25.5523 22 26 22.4477 26 23V31"
        stroke="#595959" stroke-width="2" />
</svg>
