<svg width="44" height="44" viewBox="0 0 44 44" fill="none" xmlns="http://www.w3.org/2000/svg">
    <path
        d="M33.3525 16.1329L33.3751 16.1445L33.3973 16.1543L33.3975 16.1543L33.3978 16.1545L33.3984 16.1547L33.3993 16.1551L33.4122 16.161C33.4247 16.1667 33.4448 16.176 33.4716 16.1888C33.5254 16.2145 33.606 16.254 33.7069 16.3068C33.9093 16.4127 34.1898 16.5699 34.4974 16.7726C35.1296 17.1895 35.8004 17.75 36.1884 18.3941C36.5479 18.991 36.6619 19.6383 36.2558 20.4127C35.8099 21.2628 34.6892 22.3584 32.2696 23.6009L32.2692 23.6011C30.3298 24.5981 29.0344 25.691 28.2694 26.8589C27.4913 28.0468 27.2952 29.2633 27.4739 30.4099C27.78 32.3736 29.1715 34.0533 30.3051 35.142L11.0755 35.142L11.0731 35.142C10.9885 35.1423 10.905 35.1231 10.829 35.0859C10.7532 35.0488 10.687 34.9948 10.6354 34.928C9.20551 33.0675 8.90204 31.5631 9.10042 30.3699C9.30323 29.1501 10.0581 28.085 11.0742 27.1796C12.0869 26.2771 13.2956 25.5911 14.2702 25.127C14.7539 24.8966 15.1716 24.7249 15.4665 24.6113C15.6137 24.5546 15.7299 24.5126 15.8077 24.4853C15.8466 24.4716 15.8759 24.4616 15.8947 24.4553L15.9149 24.4486L15.9176 24.4477L15.9188 24.4473L15.919 24.4472L15.9192 24.4472L29.024 20.2365L29.0546 20.2267L29.0843 20.2146C29.8509 19.902 30.4671 19.4716 30.7864 18.8587C31.1268 18.2051 31.0364 17.5318 30.7792 16.968C30.5312 16.4245 30.1062 15.9216 29.6411 15.478C29.1686 15.0276 28.6087 14.5954 28.035 14.1995L27.5465 13.8549L27.5389 13.8496L27.5313 13.8444C27.4601 13.7965 27.4088 13.7242 27.387 13.6412C27.366 13.5615 27.3737 13.4771 27.4084 13.4026C27.4461 13.3367 27.5073 13.2873 27.5798 13.2643L27.3253 12.4628L27.5798 13.2643C27.6547 13.2405 27.7359 13.2468 27.8063 13.2816C27.807 13.282 27.8076 13.2823 27.8083 13.2826L33.3525 16.1329Z"
        stroke="#595959" stroke-width="1.68182" />
    <path
        d="M20.222 17.5999L20.2204 17.5983C19.7572 17.1466 19.0739 16.4051 18.5084 15.5092C17.9401 14.6088 17.5137 13.5887 17.5113 12.5703C17.5114 11.7892 17.8217 11.0401 18.374 10.4878C18.9265 9.93539 19.6757 9.62504 20.4569 9.62504H20.6584C21.4041 9.68258 22.1008 10.0196 22.6088 10.569C23.12 11.1218 23.402 11.8482 23.3976 12.601C23.3875 13.6162 22.9584 14.6304 22.3913 15.5246C21.8269 16.4145 21.1483 17.15 20.6908 17.5993L20.6903 17.5999C20.6279 17.6614 20.5437 17.6959 20.4561 17.6959C20.3685 17.6959 20.2844 17.6614 20.222 17.5999ZM20.8033 10.8378L20.7213 11.2501L20.8033 10.8378C20.4606 10.7696 20.1053 10.8046 19.7825 10.9383C19.4596 11.072 19.1837 11.2985 18.9895 11.5891C18.7954 11.8796 18.6917 12.2213 18.6917 12.5707C18.6917 13.0393 18.8779 13.4888 19.2092 13.8201C19.5406 14.1515 19.99 14.3376 20.4586 14.3376C20.8081 14.3376 21.1497 14.234 21.4403 14.0398C21.7308 13.8457 21.9573 13.5697 22.091 13.2469C22.2248 12.924 22.2598 12.5688 22.1916 12.226C22.1234 11.8833 21.9551 11.5684 21.708 11.3213C21.4609 11.0742 21.1461 10.9059 20.8033 10.8378Z"
        stroke="#595959" stroke-width="0.840909" />
</svg>
