<svg width="44" height="44" viewBox="0 0 44 44" fill="none" xmlns="http://www.w3.org/2000/svg">
    <path fill-rule="evenodd" clip-rule="evenodd"
        d="M13 20.5C13 16.3579 16.3579 13 20.5 13C24.6421 13 28 16.3579 28 20.5C28 24.6421 24.6421 28 20.5 28C16.3579 28 13 24.6421 13 20.5ZM20.5 11C15.2533 11 11 15.2533 11 20.5C11 25.7467 15.2533 30 20.5 30C22.3423 30 24.0621 29.4756 25.5183 28.5679C25.9265 28.3135 26.4594 28.3341 26.8145 28.6586L31.0872 32.5635C31.4949 32.9361 32.1274 32.9077 32.5 32.5C32.8726 32.0923 32.8441 31.4598 32.4365 31.0872L28.3909 27.3899C27.9903 27.0238 27.9598 26.4078 28.2723 25.9641C29.3608 24.4186 30 22.534 30 20.5C30 15.2533 25.7467 11 20.5 11Z"
        fill="#595959" />
</svg>
