<svg width="44" height="44" viewBox="0 0 44 44" fill="none" xmlns="http://www.w3.org/2000/svg">
    <mask id="path-1-inside-1" fill="white">
        <path
            d="M33.0488 24.9722H26.6012V14.2825C26.6012 14.1954 26.5666 14.112 26.5051 14.0505C26.4435 13.9889 26.3601 13.9543 26.273 13.9543H19.7007C19.6137 13.9543 19.5302 13.9889 19.4687 14.0505C19.4071 14.112 19.3726 14.1954 19.3726 14.2825V19.5051H12.9512C12.8536 19.5051 12.7599 19.5438 12.6907 19.6127C12.6215 19.6815 12.5825 19.775 12.582 19.8726V34.9762C12.5823 35.0739 12.6214 35.1674 12.6906 35.2363C12.7598 35.3052 12.8535 35.3439 12.9512 35.3437H33.0488C33.1465 35.3439 33.2402 35.3052 33.3094 35.2363C33.3786 35.1674 33.4177 35.0739 33.418 34.9762V25.3397C33.4177 25.2421 33.3786 25.1485 33.3094 25.0796C33.2402 25.0107 33.1465 24.9721 33.0488 24.9722ZM13.0195 34.9062V19.9426H19.3726V34.9062H13.0195ZM19.8101 14.3918H26.1637V34.9062H19.8101V14.3918ZM32.9805 34.9062H26.6012V25.4097H32.9805V34.9062Z" />
    </mask>
    <path
        d="M26.6012 24.9722H23.6012V27.9722H26.6012V24.9722ZM19.3726 19.5051V22.5051H22.3726V19.5051H19.3726ZM12.9512 19.5051L12.9511 22.5051H12.9512V19.5051ZM12.582 19.8726L9.58203 19.8593V19.8726H12.582ZM12.582 34.9762H9.58202L9.58204 34.9851L12.582 34.9762ZM12.9512 35.3437V32.3437L12.9467 32.3437L12.9512 35.3437ZM33.0488 35.3437L33.0533 32.3437H33.0488V35.3437ZM33.418 34.9762L36.418 34.9851V34.9762H33.418ZM33.418 25.3397H36.418L36.418 25.3308L33.418 25.3397ZM13.0195 34.9062H10.0195V37.9062H13.0195V34.9062ZM13.0195 19.9426V16.9426H10.0195V19.9426H13.0195ZM19.3726 19.9426H22.3726V16.9426H19.3726V19.9426ZM19.3726 34.9062V37.9062H22.3726V34.9062H19.3726ZM19.8101 14.3918V11.3918H16.8101V14.3918H19.8101ZM26.1637 14.3918H29.1637V11.3918H26.1637V14.3918ZM26.1637 34.9062V37.9062H29.1637V34.9062H26.1637ZM19.8101 34.9062H16.8101V37.9062H19.8101V34.9062ZM32.9805 34.9062V37.9062H35.9805V34.9062H32.9805ZM26.6012 34.9062H23.6012V37.9062H26.6012V34.9062ZM26.6012 25.4097V22.4097H23.6012V25.4097H26.6012ZM32.9805 25.4097H35.9805V22.4097H32.9805V25.4097ZM33.0488 21.9722H26.6012V27.9722H33.0488V21.9722ZM29.6012 24.9722V14.2825H23.6012V24.9722H29.6012ZM29.6012 14.2825C29.6012 13.3998 29.2505 12.5533 28.6264 11.9291L24.3837 16.1718C23.8827 15.6707 23.6012 14.9911 23.6012 14.2825H29.6012ZM28.6264 11.9291C28.0022 11.305 27.1557 10.9543 26.273 10.9543V16.9543C25.5644 16.9543 24.8848 16.6728 24.3837 16.1718L28.6264 11.9291ZM26.273 10.9543H19.7007V16.9543H26.273V10.9543ZM19.7007 10.9543C18.818 10.9543 17.9715 11.305 17.3474 11.9291L21.59 16.1718C21.0889 16.6728 20.4093 16.9543 19.7007 16.9543V10.9543ZM17.3474 11.9291C16.7232 12.5533 16.3726 13.3998 16.3726 14.2825H22.3726C22.3726 14.9911 22.0911 15.6707 21.59 16.1718L17.3474 11.9291ZM16.3726 14.2825V19.5051H22.3726V14.2825H16.3726ZM19.3726 16.5051H12.9512V22.5051H19.3726V16.5051ZM12.9512 16.5051C12.0603 16.5051 11.2056 16.858 10.5741 17.4866L14.8073 21.7387C14.3143 22.2296 13.6469 22.5051 12.9511 22.5051L12.9512 16.5051ZM10.5741 17.4866C9.94272 18.1152 9.58602 18.9683 9.58206 19.8593L15.582 19.886C15.5789 20.5817 15.3004 21.2478 14.8073 21.7387L10.5741 17.4866ZM9.58203 19.8726V34.9762H15.582V19.8726H9.58203ZM9.58204 34.9851C9.58469 35.8777 9.94145 36.7327 10.574 37.3624L14.8072 33.1103C15.3013 33.6022 15.5799 34.2701 15.582 34.9673L9.58204 34.9851ZM10.574 37.3624C11.2065 37.9921 12.0631 38.345 12.9556 38.3437L12.9467 32.3437C13.6439 32.3427 14.3131 32.6184 14.8072 33.1103L10.574 37.3624ZM12.9512 38.3437H33.0488V32.3437H12.9512V38.3437ZM33.0444 38.3437C33.9369 38.345 34.7935 37.9921 35.426 37.3624L31.1928 33.1103C31.6869 32.6184 32.3561 32.3427 33.0533 32.3437L33.0444 38.3437ZM35.426 37.3624C36.0585 36.7327 36.4153 35.8777 36.418 34.9851L30.418 34.9673C30.42 34.2701 30.6987 33.6022 31.1928 33.1103L35.426 37.3624ZM36.418 34.9762V25.3397H30.418V34.9762H36.418ZM36.418 25.3308C36.4153 24.4383 36.0585 23.5833 35.426 22.9536L31.1928 27.2057C30.6987 26.7137 30.42 26.0459 30.418 25.3486L36.418 25.3308ZM35.426 22.9536C34.7935 22.3238 33.9369 21.9709 33.0444 21.9722L33.0533 27.9722C32.3561 27.9733 31.687 27.6976 31.1928 27.2057L35.426 22.9536ZM16.0195 34.9062V19.9426H10.0195V34.9062H16.0195ZM13.0195 22.9426H19.3726V16.9426H13.0195V22.9426ZM16.3726 19.9426V34.9062H22.3726V19.9426H16.3726ZM19.3726 31.9062H13.0195V37.9062H19.3726V31.9062ZM19.8101 17.3918H26.1637V11.3918H19.8101V17.3918ZM23.1637 14.3918V34.9062H29.1637V14.3918H23.1637ZM26.1637 31.9062H19.8101V37.9062H26.1637V31.9062ZM22.8101 34.9062V14.3918H16.8101V34.9062H22.8101ZM32.9805 31.9062H26.6012V37.9062H32.9805V31.9062ZM29.6012 34.9062V25.4097H23.6012V34.9062H29.6012ZM26.6012 28.4097H32.9805V22.4097H26.6012V28.4097ZM29.9805 25.4097V34.9062H35.9805V25.4097H29.9805Z"
        fill="#595959" mask="url(#path-1-inside-1)" />
    <path
        d="M19.5 20H13V35H19.5M19.5 20V14H26.5V24.5M19.5 20V35M19.5 35H26.5M26.5 35H33V25H26.5V24.5M26.5 35V24.5"
        stroke="#595959" stroke-width="2" />
</svg>
